<svg width="48" height="48" viewBox="0 0 48 48" fill="none" xmlns="http://www.w3.org/2000/svg">
<path d="M10 0.5H38C43.2467 0.5 47.5 4.75329 47.5 10V38C47.5 43.2467 43.2467 47.5 38 47.5H10C4.7533 47.5 0.5 43.2467 0.5 38V10C0.5 4.7533 4.75329 0.5 10 0.5Z" fill="#E3F0ED"/>
<path d="M10 0.5H38C43.2467 0.5 47.5 4.75329 47.5 10V38C47.5 43.2467 43.2467 47.5 38 47.5H10C4.7533 47.5 0.5 43.2467 0.5 38V10C0.5 4.7533 4.75329 0.5 10 0.5Z" stroke="#388273"/>
<path d="M20 14V18" stroke="#388273" stroke-width="2" stroke-linecap="round" stroke-linejoin="round"/>
<path d="M28 14V18" stroke="#388273" stroke-width="2" stroke-linecap="round" stroke-linejoin="round"/>
<path d="M31 16H17C15.8954 16 15 16.8954 15 18V32C15 33.1046 15.8954 34 17 34H31C32.1046 34 33 33.1046 33 32V18C33 16.8954 32.1046 16 31 16Z" stroke="#388273" stroke-width="2" stroke-linecap="round" stroke-linejoin="round"/>
<path d="M15 22H33" stroke="#388273" stroke-width="2" stroke-linecap="round" stroke-linejoin="round"/>
</svg>
