<svg width="48" height="48" viewBox="0 0 48 48" fill="none" xmlns="http://www.w3.org/2000/svg">
<path d="M10 0.5H38C43.2467 0.5 47.5 4.75329 47.5 10V38C47.5 43.2467 43.2467 47.5 38 47.5H10C4.7533 47.5 0.5 43.2467 0.5 38V10C0.5 4.7533 4.75329 0.5 10 0.5Z" fill="#E3F0ED"/>
<path d="M10 0.5H38C43.2467 0.5 47.5 4.75329 47.5 10V38C47.5 43.2467 43.2467 47.5 38 47.5H10C4.7533 47.5 0.5 43.2467 0.5 38V10C0.5 4.7533 4.75329 0.5 10 0.5Z" stroke="#388273"/>
<path d="M31 21V18C31 17.4696 30.7893 16.9609 30.4142 16.5858C30.0391 16.2107 29.5304 16 29 16H19C18.4696 16 17.9609 16.2107 17.5858 16.5858C17.2107 16.9609 17 17.4696 17 18V21" stroke="#388273" stroke-width="2" stroke-linecap="round" stroke-linejoin="round"/>
<path d="M15 28C15 28.5304 15.2107 29.0391 15.5858 29.4142C15.9609 29.7893 16.4696 30 17 30H31C31.5304 30 32.0391 29.7893 32.4142 29.4142C32.7893 29.0391 33 28.5304 33 28V23C33 22.4696 32.7893 21.9609 32.4142 21.5858C32.0391 21.2107 31.5304 21 31 21C30.4696 21 29.9609 21.2107 29.5858 21.5858C29.2107 21.9609 29 22.4696 29 23V24.5C29 24.6326 28.9473 24.7598 28.8536 24.8536C28.7598 24.9473 28.6326 25 28.5 25H19.5C19.3674 25 19.2402 24.9473 19.1464 24.8536C19.0527 24.7598 19 24.6326 19 24.5V23C19 22.4696 18.7893 21.9609 18.4142 21.5858C18.0391 21.2107 17.5304 21 17 21C16.4696 21 15.9609 21.2107 15.5858 21.5858C15.2107 21.9609 15 22.4696 15 23V28Z" stroke="#388273" stroke-width="2" stroke-linecap="round" stroke-linejoin="round"/>
<path d="M17 30V32" stroke="#388273" stroke-width="2" stroke-linecap="round" stroke-linejoin="round"/>
<path d="M31 30V32" stroke="#388273" stroke-width="2" stroke-linecap="round" stroke-linejoin="round"/>
</svg>
