<svg width="173" height="40" viewBox="0 0 173 40" fill="none" xmlns="http://www.w3.org/2000/svg">
<path d="M29.626 2.5H5.38385C2.42918 2.5 0 4.92918 0 7.88385V32.1161C0 35.0807 2.42918 37.5 5.38385 37.5H29.6161C32.5807 37.5 35 35.0708 35 32.1161V7.88385C35.0099 4.92918 32.5807 2.5 29.626 2.5ZM14.9518 9.26204C14.9816 8.28045 15.279 7.36827 15.9632 6.62465C16.8654 5.65297 18.1643 5.63314 19.0566 6.62465C20.0085 7.69547 20.2663 8.98442 19.9787 10.3428C19.6515 11.8895 18.6898 13.0496 17.5099 14.1105C16.0821 12.772 14.9023 11.3442 14.9518 9.26204ZM13.0382 24.2337C12.8697 24.9476 12.5524 25.5822 11.9377 26.0283C11.4221 26.3952 10.8668 26.6133 10.2125 26.5042C9.63739 26.4051 9.27053 25.9688 9.2507 25.3839C9.23087 24.9674 9.3796 24.5907 9.59773 24.2436C10.3612 23.0042 11.9377 22.7861 13.2266 23.034C13.1671 23.4306 13.1275 23.8371 13.0382 24.2337ZM8.54673 22.5779C7.63455 22.5382 6.79178 22.2606 6.09773 21.6459C4.99716 20.6841 5.00708 19.2663 6.15722 18.364C7.30736 17.4518 8.63597 17.2535 10.0241 17.6303C11.432 18.017 12.5127 18.9193 13.5142 20.0297C12.1261 21.4773 10.6685 22.6771 8.54673 22.5779ZM17.5099 34.1091C13.8513 31.2238 12.2946 24.7691 16.1615 19.9108C15.5269 19.1473 14.7932 18.5028 13.9603 17.9674C13.0878 17.4122 12.1855 16.9065 11.3329 16.3215C9.99433 15.4093 9.13172 14.17 8.93342 12.534C8.88385 12.1176 8.9235 11.6615 9.03257 11.245C9.33994 10.0156 10.4306 9.44051 11.6501 9.79745C12.2351 9.97592 12.7309 10.2833 13.1473 10.7195C14.1091 11.711 14.6345 12.9108 14.7337 14.289C14.7833 15.0326 14.6544 15.7365 14.1586 16.3414C15.2889 17.0652 16.3994 17.779 17.5099 18.483C18.5906 17.789 19.7011 17.0751 20.8413 16.3414C20.177 15.4788 20.1572 14.4873 20.3853 13.4759C20.6629 12.2663 21.2181 11.2054 22.2096 10.4122C22.8442 9.90652 23.5481 9.58924 24.381 9.71813C25.4221 9.87677 26.126 10.789 26.1062 12.0482C26.0765 13.8924 25.1742 15.2805 23.7068 16.3116C22.864 16.9065 21.9518 17.4023 21.0793 17.9575C16.8753 20.6445 15.2989 26.0977 17.4107 30.619C17.4306 30.6586 17.4504 30.6983 17.5 30.7975C17.5595 30.6785 17.619 30.5991 17.6586 30.5099C18.6501 28.2195 18.8088 25.8796 18.0949 23.4901C18.0056 23.1926 18.0056 22.9448 18.1643 22.687C18.5609 22.0623 18.9476 21.4278 19.3541 20.7635C21.9518 24.2833 21.8328 30.5595 17.5099 34.1091ZM24.5793 26.4249C23.9348 26.534 23.3697 26.3159 22.8541 25.949C22.2394 25.5028 21.9221 24.8782 21.7535 24.1544C21.6643 23.7578 21.6246 23.3513 21.5651 22.9547C22.8541 22.7068 24.4306 22.9249 25.194 24.1643C25.4122 24.5113 25.551 24.8881 25.5411 25.3045C25.5212 25.8895 25.1544 26.3258 24.5793 26.4249ZM29.2394 21.2989C28.5255 22.1615 27.5439 22.4887 26.4731 22.5779C25.1841 22.6771 24.0736 22.2011 23.0722 21.4575C22.517 21.0411 22.0212 20.5552 21.4957 20.0991C22.9037 18.3541 25.194 16.9065 27.5637 17.6799C28.228 17.898 28.8328 18.2252 29.2691 18.7904C29.8838 19.5637 29.8739 20.5354 29.2394 21.2989Z" fill="#212529"/>
<path d="M46.4973 10.0019H57.426C61.4212 10.0019 63.9301 12.3741 63.9301 16.187C63.9301 19.0288 62.5598 21.1861 60.2895 21.8786L63.9097 27.6817H58.9191L55.633 22.3801H53.2877C51.6106 22.3801 50.5197 23.0169 50.5197 24.3941V27.6817H46.4973V10.0019ZM50.7584 18.6706C51.4469 18.0895 52.156 17.8109 53.3354 17.8109H57.8078C59.2532 17.8109 59.6759 17.1741 59.6759 16.1791C59.6759 15.1283 59.1305 14.5472 57.7328 14.5472H50.5197V18.6627H50.7584V18.6706Z" fill="#212529"/>
<path d="M64.6388 18.8373C64.6388 13.2332 67.8363 9.72277 72.9223 9.72277H75.9971C80.9399 9.72277 84.0897 12.7318 84.4646 17.8422H80.2036C79.8968 15.6054 78.431 14.4193 76.0175 14.4193H73.0109C70.4066 14.4193 68.8931 16.0512 68.8931 18.8373C68.8931 21.6234 70.4134 23.2552 73.0109 23.2552H76.0175C78.431 23.2552 79.8968 22.0373 80.2036 19.8323H84.4646C84.0829 24.9428 80.9399 27.9518 75.9971 27.9518H72.9223C67.8363 27.9518 64.6388 24.4493 64.6388 18.8373Z" fill="#212529"/>
<path d="M93.9069 22.8975L99.6337 10.0019H104.174L96.3204 27.6817H91.2548L83.4008 10.0019H87.9414L93.6683 22.8975H93.9069Z" fill="#212529"/>
<path d="M105.15 10.0019H116.317C120.312 10.0019 122.821 12.4298 122.821 16.3303C122.821 20.2309 120.312 22.6587 116.317 22.6587H111.94C110.14 22.6587 109.172 23.3752 109.172 24.6727V27.6817H105.15V10.0019ZM109.411 18.9492C110.12 18.3443 110.904 18.0895 112.083 18.0895H116.487C117.837 18.0895 118.567 17.4527 118.567 16.3224C118.567 15.2477 117.906 14.5552 116.412 14.5552H109.172V18.9492H109.411Z" fill="#212529"/>
<path d="M127.836 10.0019H132.902L140.756 27.6817H136.215L134.892 24.7284H125.832L124.529 27.6817H119.989L127.836 10.0019ZM130.25 14.7781L127.863 20.1672H132.881L130.495 14.7781H130.25Z" fill="#212529"/>
<path d="M146.036 16.6236L150.699 9.99269H155.901L147.904 21.3759V27.6725H143.881V21.3202L135.911 10.0007H141.113L145.797 16.6316H146.036V16.6236Z" fill="#212529"/>
</svg>
