<svg width="20" height="20" viewBox="0 0 20 20" fill="none" xmlns="http://www.w3.org/2000/svg">
<path d="M18.3312 14.1014V16.6014C18.3322 16.8335 18.2846 17.0632 18.1917 17.2758C18.0987 17.4885 17.9623 17.6794 17.7913 17.8363C17.6203 17.9932 17.4184 18.1126 17.1985 18.187C16.9787 18.2613 16.7457 18.2889 16.5146 18.268C13.9503 17.9894 11.4871 17.1132 9.32291 15.7097C7.30943 14.4303 5.60236 12.7232 4.32291 10.7097C2.91456 8.53572 2.03811 6.06054 1.76458 3.48472C1.74375 3.25427 1.77114 3.02202 1.84499 2.80274C1.91885 2.58346 2.03755 2.38196 2.19355 2.21107C2.34954 2.04018 2.53941 1.90364 2.75107 1.81015C2.96272 1.71666 3.19153 1.66827 3.42291 1.66805H5.92291C6.32733 1.66407 6.7194 1.80728 7.02604 2.07099C7.33269 2.33471 7.53297 2.70092 7.58958 3.10138C7.6951 3.90144 7.89078 4.68699 8.17291 5.44305C8.28503 5.74132 8.30929 6.06548 8.24283 6.37712C8.17637 6.68875 8.02196 6.97481 7.79791 7.20138L6.73958 8.25972C7.92587 10.346 9.65329 12.0734 11.7396 13.2597L12.7979 12.2014C13.0245 11.9773 13.3105 11.8229 13.6222 11.7565C13.9338 11.69 14.258 11.7143 14.5562 11.8264C15.3123 12.1085 16.0979 12.3042 16.8979 12.4097C17.3027 12.4668 17.6724 12.6707 17.9367 12.9826C18.201 13.2945 18.3414 13.6927 18.3312 14.1014Z" stroke="#D1D5DC" stroke-width="1.66667" stroke-linecap="round" stroke-linejoin="round"/>
</svg>
