<svg width="20" height="20" viewBox="0 0 20 20" fill="none" xmlns="http://www.w3.org/2000/svg">
<g clip-path="url(#clip0_2840_17274)">
<path d="M14.1719 1.66797H5.83854C3.53736 1.66797 1.67188 3.53345 1.67188 5.83464V14.168C1.67188 16.4692 3.53736 18.3346 5.83854 18.3346H14.1719C16.4731 18.3346 18.3385 16.4692 18.3385 14.168V5.83464C18.3385 3.53345 16.4731 1.66797 14.1719 1.66797Z" stroke="#D1D5DC" stroke-width="1.66667" stroke-linecap="round" stroke-linejoin="round"/>
<path d="M13.3337 9.4733C13.4366 10.1668 13.3181 10.8751 12.9952 11.4975C12.6723 12.1198 12.1614 12.6245 11.5351 12.9397C10.9088 13.2549 10.1991 13.3646 9.5069 13.2532C8.81468 13.1419 8.17521 12.815 7.67944 12.3193C7.18367 11.8235 6.85685 11.184 6.74546 10.4918C6.63408 9.79959 6.74379 9.08988 7.05901 8.46361C7.37423 7.83734 7.8789 7.32642 8.50123 7.0035C9.12356 6.68058 9.83187 6.56212 10.5254 6.66496C11.2328 6.76987 11.8878 7.09952 12.3935 7.60522C12.8992 8.11092 13.2288 8.76586 13.3337 9.4733Z" stroke="#D1D5DC" stroke-width="1.66667" stroke-linecap="round" stroke-linejoin="round"/>
<path d="M14.5781 5.41797H14.5865" stroke="#D1D5DC" stroke-width="1.66667" stroke-linecap="round" stroke-linejoin="round"/>
</g>
<defs>
<clipPath id="clip0_2840_17274">
<rect width="20" height="20" fill="white"/>
</clipPath>
</defs>
</svg>
