<svg width="20" height="20" viewBox="0 0 20 20" fill="none" xmlns="http://www.w3.org/2000/svg">
<path d="M13.3281 6.66797C14.6542 6.66797 15.926 7.19475 16.8637 8.13243C17.8013 9.07012 18.3281 10.3419 18.3281 11.668V17.5013H14.9948V11.668C14.9948 11.2259 14.8192 10.802 14.5066 10.4895C14.1941 10.1769 13.7702 10.0013 13.3281 10.0013C12.8861 10.0013 12.4622 10.1769 12.1496 10.4895C11.8371 10.802 11.6615 11.2259 11.6615 11.668V17.5013H8.32812V11.668C8.32812 10.3419 8.85491 9.07012 9.79259 8.13243C10.7303 7.19475 12.002 6.66797 13.3281 6.66797Z" stroke="#D1D5DC" stroke-width="1.66667" stroke-linecap="round" stroke-linejoin="round"/>
<path d="M5.00521 7.5H1.67188V17.5H5.00521V7.5Z" stroke="#D1D5DC" stroke-width="1.66667" stroke-linecap="round" stroke-linejoin="round"/>
<path d="M3.33854 5.0013C4.25902 5.0013 5.00521 4.25511 5.00521 3.33464C5.00521 2.41416 4.25902 1.66797 3.33854 1.66797C2.41807 1.66797 1.67188 2.41416 1.67188 3.33464C1.67188 4.25511 2.41807 5.0013 3.33854 5.0013Z" stroke="#D1D5DC" stroke-width="1.66667" stroke-linecap="round" stroke-linejoin="round"/>
</svg>
